<?xml version="1.0" ?><!DOCTYPE svg  PUBLIC '-//W3C//DTD SVG 1.1//EN'  'http://www.w3.org/Graphics/SVG/1.1/DTD/svg11.dtd'><svg enable-background="new 0 0 512 512" height="512px" id="galaxy" version="1.1" viewBox="0 0 512 512" width="512px" xml:space="preserve" xmlns="http://www.w3.org/2000/svg" xmlns:xlink="http://www.w3.org/1999/xlink"><circle cx="257.654" cy="266.615" fill="#598889" r="199.143"/><circle cx="257.654" cy="266.615" fill="#598889" r="199.143"/><path d="M481.13,266.855h-53.917c0-0.081,0.003-0.16,0.003-0.241c0-93.646-75.916-169.562-169.562-169.562  c-61.32,0-115.033,32.552-144.813,81.315H59.388c-9.282,0-16.875,7.594-16.875,16.875c0,5.173,2.362,9.816,6.057,12.919H36.987  c-12.645,0-22.992,10.346-22.992,22.992s10.347,22.992,22.992,22.992h51.565c-0.299,4.118-0.46,8.274-0.46,12.468  c0,9.687,0.824,19.179,2.384,28.421H48.23c-12.645,0-22.993,7.016-22.993,15.59c0,8.573,10.348,15.588,22.993,15.588h50.645  c24.125,64.242,86.108,109.964,158.78,109.964c47.101,0,89.711-19.21,120.438-50.216h70.323c9.281,0,16.876-7.595,16.876-16.876  s-7.595-16.875-16.876-16.875h-44.37c4.831-8.246,8.981-16.939,12.385-25.997h39.772c12.646,0,22.992-7.015,22.992-15.588  c0-3.807-2.043-7.305-5.417-10.019h7.353c9.281,0,16.875-7.595,16.875-16.876S490.411,266.855,481.13,266.855z" fill="#5AA096"/><path d="M481.13,266.855h-53.917c0-0.081,0.003-0.16,0.003-0.241c0-93.646-75.916-169.562-169.562-169.562  c-61.32,0-115.033,32.552-144.813,81.315H59.388c-9.282,0-16.875,7.594-16.875,16.875s7.594,16.875,16.875,16.875h37.653  c-5.802,17.104-8.949,35.433-8.949,54.496c0,93.646,75.915,169.563,169.562,169.563c47.101,0,89.711-19.21,120.438-50.216h70.323  c9.281,0,16.876-7.595,16.876-16.876s-7.595-16.875-16.876-16.875h-44.37c9.232-15.757,16.002-33.132,19.761-51.604h57.324  c9.281,0,16.875-7.595,16.875-16.876S490.411,266.855,481.13,266.855z" fill="#466C6F"/><path d="M257.654,412.966c-80.699,0-146.352-65.652-146.352-146.352c0-80.698,65.653-146.352,146.352-146.352  c80.698,0,146.352,65.653,146.352,146.352C404.006,347.313,338.353,412.966,257.654,412.966z M257.654,134.263  c-72.979,0-132.352,59.373-132.352,132.352c0,72.979,59.373,132.352,132.352,132.352c72.979,0,132.352-59.372,132.352-132.352  C390.006,193.636,330.633,134.263,257.654,134.263z" fill="#5AA096"/><path d="M257.654,375.629c-60.111,0-109.015-48.903-109.015-109.015c0-60.11,48.904-109.014,109.015-109.014  c60.11,0,109.014,48.903,109.014,109.014C366.668,326.726,317.765,375.629,257.654,375.629z M257.654,171.601  c-52.391,0-95.015,42.623-95.015,95.014c0,52.392,42.624,95.015,95.015,95.015c52.391,0,95.014-42.623,95.014-95.015  C352.668,214.224,310.045,171.601,257.654,171.601z" fill="#5AA096"/><circle cx="257.561" cy="268.979" fill="#2F485E" r="66.433"/><circle cx="151.381" cy="391.946" fill="#E0E0E0" r="19.773"/><circle cx="364.987" cy="231.485" fill="#FFFFFF" r="19.773"/><circle cx="181.956" cy="348.487" fill="#FFD800" r="8.452"/><circle cx="196.265" cy="178.828" fill="#52C9D5" r="8.452"/><circle cx="403.825" cy="117.016" fill="#66B2B2" r="19.773"/><circle cx="120.212" cy="120.289" fill="#66B2B2" r="19.773"/><circle cx="324.296" cy="108.473" fill="#66B2B2" r="19.773"/><circle cx="346.296" cy="441.489" fill="#66B2B2" r="19.773"/><circle cx="417.111" cy="395.012" fill="#66B2B2" r="19.772"/><circle cx="49.09" cy="436.383" fill="#66B2B2" r="8.452"/><circle cx="301.535" cy="380.171" fill="#66B2B2" r="8.452"/><circle cx="57.267" cy="117.506" fill="#66B2B2" r="8.452"/><circle cx="465.062" cy="145.101" fill="#66B2B2" r="8.452"/><circle cx="338.329" cy="272.856" fill="#66B2B2" r="8.452"/><circle cx="257.654" cy="266.615" fill="#FF7143" r="29.053"/><path d="M258.046,237.564c-0.132-0.002-0.263,0.005-0.395,0.005l-0.784,58.08c0.132,0.004,0.262,0.014,0.395,0.016  c16.044,0.216,29.226-12.614,29.442-28.658S274.09,237.781,258.046,237.564z" fill="#E5603C"/><polygon fill="#FFD326" points="416.202,179.242 421.395,189.764 433.006,191.45 424.604,199.64 426.587,211.204 416.202,205.744   405.817,211.204 407.801,199.64 399.399,191.45 411.01,189.764 "/><polygon fill="#FFD326" points="49.203,347.242 54.395,357.764 66.005,359.45 57.604,367.64 59.587,379.204 49.203,373.744   38.817,379.204 40.801,367.64 32.399,359.45 44.01,357.764 "/><polygon fill="#FFD326" points="141.203,46.242 146.395,56.764 158.005,58.45 149.604,66.64 151.587,78.204 141.203,72.744   130.817,78.204 132.801,66.64 124.399,58.45 136.01,56.764 "/></svg>